<?xml version="1.0" encoding="utf-8"?>
<!-- Generator: Adobe Illustrator 16.0.0, SVG Export Plug-In . SVG Version: 6.00 Build 0)  -->
<!DOCTYPE svg PUBLIC "-//W3C//DTD SVG 1.1//EN" "http://www.w3.org/Graphics/SVG/1.1/DTD/svg11.dtd">
<svg version="1.1" id="Layer_1" xmlns="http://www.w3.org/2000/svg" xmlns:xlink="http://www.w3.org/1999/xlink" x="0px" y="0px"
	 width="100px" height="100px" viewBox="0 0 100 100" enable-background="new 0 0 100 100" xml:space="preserve">
<g>
	<path d="M40.763,46.788c0,0,9.065-0.673,9.065-11.306c0-10.632-7.417-15.819-16.813-15.819H15.721h-0.508H2.099v59.414h13.114
		h0.508h17.294c0,0,18.873,0.597,18.873-17.536C51.889,61.541,52.713,46.788,40.763,46.788z M15.721,30.224H30.79h2.226
		c0,0,4.203,0,4.203,6.181s-2.473,7.077-5.275,7.077H15.721V30.224z M32.218,68.519H15.721V52.64h17.294c0,0,6.264-0.081,6.264,8.16
		C39.279,67.671,34.698,68.449,32.218,68.519z"/>
	<rect x="64.279" y="23.163" width="24.513" height="7.317"/>
	<path d="M77.06,34.78c-22.848,0-22.828,22.827-22.828,22.827S52.665,80.32,77.061,80.32c0,0,20.331,1.161,20.331-15.802H86.936
		c0,0,0.348,6.391-9.526,6.391c0,0-10.456,0.699-10.456-10.34H97.74C97.74,60.569,101.108,34.78,77.06,34.78z M86.354,52.64H66.837
		c0,0,1.278-9.158,10.455-9.158C86.471,43.481,86.354,52.64,86.354,52.64z"/>
</g>
</svg>
