<?xml version="1.0" encoding="utf-8"?>
<!-- Generator: Adobe Illustrator 16.0.0, SVG Export Plug-In . SVG Version: 6.00 Build 0)  -->
<!DOCTYPE svg PUBLIC "-//W3C//DTD SVG 1.1//EN" "http://www.w3.org/Graphics/SVG/1.1/DTD/svg11.dtd">
<svg version="1.1" id="Layer_1" xmlns="http://www.w3.org/2000/svg" xmlns:xlink="http://www.w3.org/1999/xlink" x="0px" y="0px"
	 width="100px" height="100px" viewBox="0 0 100 100" enable-background="new 0 0 100 100" xml:space="preserve">
<path d="M52.289,1.165c-26.656,0-40.096,19.11-40.096,35.047c0,9.649,3.653,18.233,11.487,21.432
	c1.286,0.525,2.438,0.018,2.812-1.404c0.258-0.985,0.871-3.468,1.144-4.502c0.376-1.408,0.229-1.901-0.807-3.127
	c-2.259-2.665-3.703-6.115-3.703-11.002c0-14.178,10.608-26.87,27.623-26.87c15.065,0,23.342,9.206,23.342,21.5
	c0,16.176-7.159,29.829-17.786,29.829c-5.87,0-10.262-4.854-8.854-10.807c1.686-7.107,4.951-14.778,4.951-19.907
	c0-4.592-2.463-8.423-7.565-8.423c-6,0-10.819,6.207-10.819,14.521c0,5.296,1.789,8.878,1.789,8.878s-6.141,26.015-7.215,30.571
	c-2.145,9.073-0.322,20.196-0.168,21.319c0.089,0.666,0.944,0.824,1.332,0.322c0.555-0.722,7.7-9.544,10.129-18.36
	c0.687-2.496,3.944-15.42,3.944-15.42c1.95,3.718,7.647,6.993,13.706,6.993c18.034,0,30.271-16.442,30.271-38.45
	C87.807,16.663,73.711,1.165,52.289,1.165z"/>
</svg>
