<?xml version="1.0" encoding="utf-8"?>
<!-- Generator: Adobe Illustrator 16.0.0, SVG Export Plug-In . SVG Version: 6.00 Build 0)  -->
<!DOCTYPE svg PUBLIC "-//W3C//DTD SVG 1.1//EN" "http://www.w3.org/Graphics/SVG/1.1/DTD/svg11.dtd">
<svg version="1.1" id="Layer_4" xmlns="http://www.w3.org/2000/svg" xmlns:xlink="http://www.w3.org/1999/xlink" x="0px" y="0px"
	 width="100px" height="100px" viewBox="0 0 100 100" enable-background="new 0 0 100 100" xml:space="preserve">
<g>
	<path d="M84.539,30.196c0-4.218-3.431-7.648-7.648-7.648c-1.999,0-3.855,0.807-5.271,2.173c-5.212-3.45-12.274-5.65-20.09-5.93
		l4.27-13.5l11.56,2.723c-0.002,0.057-0.017,0.11-0.017,0.167c0,3.449,2.806,6.255,6.256,6.255c3.447,0,6.251-2.806,6.251-6.255
		s-2.804-6.254-6.251-6.254c-2.648,0-4.904,1.658-5.815,3.987L55.323,2.979c-0.539-0.13-1.099,0.187-1.267,0.718l-4.763,15.056
		c-8.174,0.099-15.578,2.311-21.021,5.86c-1.407-1.3-3.241-2.065-5.168-2.065c-4.215,0-7.644,3.431-7.644,7.648
		c0,2.729,1.467,5.225,3.787,6.586c-0.146,0.806-0.244,1.623-0.244,2.458c0,7.646,6.342,14.317,15.704,17.842
		c-0.021,0.13-0.038,0.259-0.058,0.389c-4.573,2.058-7.618,7.201-7.618,13.08c0,6.715,3.939,12.368,9.346,13.717
		c0.476,1.503,1.011,2.928,1.604,4.248c-0.343-0.034-0.684-0.085-1.036-0.085c-4.668,0-8.465,3.169-8.465,7.066
		c0,0.578,0.103,1.177,0.315,1.829c0.144,0.441,0.554,0.739,1.018,0.739h12.208h2.059h1.86l0.015,0.008h7.8l0.014-0.008h1.944h2.359
		h11.914c0.466,0,0.878-0.3,1.02-0.745c0.209-0.652,0.31-1.249,0.31-1.823c0-3.897-3.798-7.066-8.468-7.066
		c-0.379,0-0.749,0.046-1.12,0.088c0.595-1.325,1.131-2.751,1.607-4.258c5.49-1.32,9.444-6.993,9.444-13.71
		c0-5.939-3.091-11.104-7.728-13.128c-0.018-0.114-0.034-0.226-0.053-0.341c9.363-3.522,15.708-10.193,15.708-17.842
		c0-0.785-0.082-1.555-0.211-2.317C82.975,35.604,84.539,33.058,84.539,30.196z M73.598,4.067c2.266,0,4.11,1.845,4.11,4.113
		s-1.844,4.114-4.11,4.114c-2.269,0-4.116-1.846-4.116-4.114S71.329,4.067,73.598,4.067z M17.602,30.196
		c0-3.036,2.469-5.508,5.503-5.508c1.239,0,2.427,0.438,3.392,1.194c-3.199,2.468-5.521,5.443-6.667,8.718
		C18.454,33.577,17.602,31.959,17.602,30.196z M62.944,57.78c0.476,3.019,0.731,6.165,0.732,9.386
		c0,13.344-4.376,25.354-10.44,28.759h-6.758c-6.064-3.404-10.441-15.415-10.441-28.759c0-3.219,0.273-6.357,0.751-9.378
		c3.974,1.241,8.393,1.957,13.068,1.957C54.538,59.745,58.963,59.027,62.944,57.78z M29.172,70.551
		c0-4.479,2.006-8.443,5.126-10.476c-0.26,2.315-0.403,4.685-0.403,7.091c0,5.212,0.637,10.176,1.765,14.578
		C31.85,80.123,29.172,75.728,29.172,70.551z M30.653,95.925c-0.021-0.147-0.031-0.289-0.031-0.428c0-2.717,2.837-4.925,6.325-4.925
		c0.783,0,1.533,0.13,2.25,0.345c1.117,2.002,2.379,3.698,3.763,5.008h-0.936H30.653z M62.851,90.572
		c3.488,0,6.327,2.208,6.327,4.925c0,0.139-0.011,0.28-0.032,0.428H58.075h-1.32c1.38-1.308,2.64-2.995,3.755-4.994
		C61.252,90.699,62.037,90.572,62.851,90.572z M70.642,70.551c0,5.212-2.705,9.673-6.606,11.26
		c1.139-4.417,1.781-9.406,1.781-14.645c-0.001-2.431-0.148-4.818-0.412-7.154C68.553,62.031,70.642,66.088,70.642,70.551z
		 M49.855,57.604c-15.832,0-28.711-8.238-28.711-18.363c0-10.126,12.879-18.365,28.711-18.365s28.713,8.239,28.713,18.365
		C78.568,49.365,65.687,57.604,49.855,57.604z M79.945,34.763c-1.109-3.293-3.405-6.286-6.583-8.773
		c0.983-0.827,2.216-1.301,3.529-1.301c3.037,0,5.508,2.472,5.508,5.508C82.398,32.073,81.458,33.757,79.945,34.763z"/>
	<path d="M44.068,35.447c0-2.512-2.041-4.553-4.55-4.553c-2.51,0-4.553,2.041-4.553,4.553c0,2.51,2.043,4.55,4.553,4.55
		C42.027,39.997,44.068,37.957,44.068,35.447z"/>
	<path d="M60.5,30.895c-2.509,0-4.55,2.041-4.55,4.553c0,2.51,2.041,4.55,4.55,4.55c2.508,0,4.549-2.04,4.549-4.55
		C65.05,32.936,63.009,30.895,60.5,30.895z"/>
	<path d="M59.53,47.429c-1.873,1.87-4.978,2.781-9.493,2.781c-0.013,0-0.025,0.008-0.038,0.008s-0.025-0.008-0.038-0.008
		c-4.516,0-7.621-0.911-9.492-2.781c-0.418-0.419-1.096-0.419-1.514,0c-0.418,0.417-0.418,1.095-0.001,1.513
		c2.293,2.295,5.894,3.409,11.007,3.409c0.013,0,0.025-0.007,0.038-0.007s0.025,0.007,0.038,0.007c5.111,0,8.712-1.114,11.006-3.409
		c0.418-0.418,0.418-1.096,0.001-1.513C60.626,47.01,59.948,47.01,59.53,47.429z"/>
</g>
</svg>
