<?xml version="1.0" encoding="utf-8"?>
<!-- Generator: Adobe Illustrator 16.0.4, SVG Export Plug-In . SVG Version: 6.00 Build 0)  -->
<!DOCTYPE svg PUBLIC "-//W3C//DTD SVG 1.1//EN" "http://www.w3.org/Graphics/SVG/1.1/DTD/svg11.dtd">
<svg version="1.1" id="Layer_4" xmlns="http://www.w3.org/2000/svg" xmlns:xlink="http://www.w3.org/1999/xlink" x="0px" y="0px"
	 width="100px" height="100px" viewBox="0 0 100 100" enable-background="new 0 0 100 100" xml:space="preserve">
<path d="M98.502,27.429c-0.431,9.453-7.038,22.401-19.806,38.834c-13.198,17.164-24.368,25.749-33.51,25.749
	c-5.655,0-10.444-5.226-14.357-15.684c-2.613-9.585-5.227-19.161-7.838-28.745C20.089,37.131,16.974,31.9,13.639,31.9
	c-0.724,0-3.27,1.531-7.622,4.577l-4.565-5.889c4.788-4.208,9.517-8.422,14.167-12.643c6.394-5.52,11.19-8.429,14.391-8.722
	c7.557-0.725,12.208,4.446,13.954,15.502c1.886,11.938,3.191,19.361,3.922,22.264c2.176,9.902,4.576,14.849,7.19,14.849
	c2.035,0,5.091-3.216,9.16-9.634c4.065-6.426,6.243-11.315,6.537-14.666c0.579-5.545-1.6-8.324-6.537-8.324
	c-2.329,0-4.727,0.531-7.188,1.592C61.818,15.174,70.934,7.577,84.396,8.006C94.375,8.299,99.075,14.774,98.502,27.429z"/>
</svg>
