<?xml version="1.0" encoding="utf-8"?>
<!-- Generator: Adobe Illustrator 16.0.4, SVG Export Plug-In . SVG Version: 6.00 Build 0)  -->
<!DOCTYPE svg PUBLIC "-//W3C//DTD SVG 1.1//EN" "http://www.w3.org/Graphics/SVG/1.1/DTD/svg11.dtd">
<svg version="1.1" id="Layer_1" xmlns="http://www.w3.org/2000/svg" xmlns:xlink="http://www.w3.org/1999/xlink" x="0px" y="0px"
	 width="50px" height="50px" viewBox="0 0 50 50" enable-background="new 0 0 50 50" xml:space="preserve">
<path d="M39.57,26.012c-0.185,0.521-0.482,1.055-0.868,1.445c-3.745,3.789-7.515,7.553-11.288,11.311
	c-1.384,1.375-3.53,1.371-4.915-0.006c-3.774-3.758-7.539-7.525-11.297-11.301c-1.38-1.385-1.385-3.529-0.008-4.912
	c3.757-3.775,7.523-7.541,11.297-11.301c1.346-1.34,3.466-1.408,4.81-0.111c1.754,1.693,3.453,3.445,5.176,5.172
	c-2.563,2.559-5.106,5.096-7.666,7.646c-1.088-1.084-2.202-2.195-3.314-3.308c-1.404-1.405-2.927-1.407-4.328-0.008
	c-0.666,0.666-1.335,1.328-1.997,1.998c-1.161,1.174-1.172,2.793-0.009,3.962c2.558,2.572,5.121,5.14,7.688,7.703
	c1.201,1.2,2.814,1.192,4.025-0.019c3.801-3.797,7.598-7.598,11.395-11.399c0.119-0.119,0.217-0.263,0.316-0.386
	C39.555,23.18,40.016,24.754,39.57,26.012z M24.899,26.523c-0.065-0.004-0.132-0.01-0.198-0.016
	c-0.096-0.141-0.173-0.299-0.291-0.416c-1.445-1.457-2.896-2.912-4.35-4.361c-0.521-0.521-1.053-0.523-1.574-0.01
	c-0.703,0.693-1.4,1.395-2.097,2.096c-0.55,0.553-0.556,1.059-0.011,1.605c2.539,2.548,5.08,5.095,7.623,7.638
	c0.525,0.525,1.055,0.531,1.577,0.01c4.63-4.627,9.257-9.257,13.881-13.89c0.508-0.508,0.5-1.021-0.009-1.537
	c-0.659-0.672-1.329-1.336-1.994-2.002c-0.692-0.691-1.143-0.691-1.837,0.004c-3.472,3.471-6.941,6.943-10.409,10.419
	C25.083,26.193,25.001,26.371,24.899,26.523z"/>
</svg>
