<?xml version="1.0" encoding="iso-8859-1"?>
<!-- Generator: Adobe Illustrator 16.0.0, SVG Export Plug-In . SVG Version: 6.00 Build 0)  -->
<!DOCTYPE svg PUBLIC "-//W3C//DTD SVG 1.1//EN" "http://www.w3.org/Graphics/SVG/1.1/DTD/svg11.dtd">
<svg version="1.1" id="Capa_1" xmlns="http://www.w3.org/2000/svg" xmlns:xlink="http://www.w3.org/1999/xlink" x="0px" y="0px"
	 width="12.886px" height="22.729px" viewBox="0 0 12.886 22.729" style="enable-background:new 0 0 12.886 22.729;"
	 xml:space="preserve">
<path d="M7.653,4.94V0H4.464c-0.072,0.183-0.11,0.4-0.11,0.622C4.32,0.729,4.282,0.806,4.282,0.915
	c-0.328,1.829-1.28,3.11-2.892,3.807C0.914,4.94,0.476,4.975,0,4.94v3.987h2.342c0.039,5.603,0.039,8.493,0.039,8.64
	c0,0.11,0,0.22,0,0.332c0.294,2.449,1.573,3.914,3.843,4.463c0.914,0.257,1.901,0.366,2.892,0.366
	c1.279-0.036,2.525-0.256,3.771-0.659v-4.685c-0.731,0.22-1.395,0.402-1.977,0.583c-1.135,0.333-2.087,0.113-2.857-0.619
	c-0.073-0.11-0.183-0.257-0.221-0.403c-0.106-0.586-0.178-1.206-0.178-1.795V8.928h5.083V4.94H7.653z"/>
<g>
</g>
<g>
</g>
<g>
</g>
<g>
</g>
<g>
</g>
<g>
</g>
<g>
</g>
<g>
</g>
<g>
</g>
<g>
</g>
<g>
</g>
<g>
</g>
<g>
</g>
<g>
</g>
<g>
</g>
</svg>
