<?xml version="1.0" encoding="utf-8"?>
<!-- Generator: Adobe Illustrator 16.0.0, SVG Export Plug-In . SVG Version: 6.00 Build 0)  -->
<!DOCTYPE svg PUBLIC "-//W3C//DTD SVG 1.1//EN" "http://www.w3.org/Graphics/SVG/1.1/DTD/svg11.dtd">
<svg version="1.1" id="Layer_1" xmlns="http://www.w3.org/2000/svg" xmlns:xlink="http://www.w3.org/1999/xlink" x="0px" y="0px"
	 width="100px" height="100px" viewBox="0 0 100 100" enable-background="new 0 0 100 100" xml:space="preserve">
<path d="M43.543,68.578c2.201,2.269,4.872,3.404,8.011,3.404h22.612c3.135,0,5.83,1.159,8.073,3.474
	c2.245,2.313,3.364,5.084,3.364,8.321c0,3.236-1.119,6.017-3.364,8.324c-2.243,2.311-4.928,3.467-8.07,3.467H51.564
	c-9.416,0-17.462-3.446-24.143-10.344c-6.686-6.895-10.026-15.202-10.026-24.919V13.235c0-3.329,1.114-6.13,3.34-8.4
	c2.225-2.266,4.945-3.402,8.155-3.402c3.115,0,5.796,1.155,8.016,3.473c2.229,2.309,3.344,5.081,3.344,8.321v11.791h33.885
	c3.148,0,5.847,1.158,8.098,3.471c2.253,2.311,3.373,5.086,3.373,8.325c0,3.233-1.12,6.009-3.365,8.321
	c-2.243,2.311-4.936,3.468-8.072,3.468H40.247v11.691C40.247,63.54,41.344,66.3,43.543,68.578z"/>
</svg>
