<?xml version="1.0" encoding="utf-8"?>
<!-- Generator: Adobe Illustrator 16.0.0, SVG Export Plug-In . SVG Version: 6.00 Build 0)  -->
<!DOCTYPE svg PUBLIC "-//W3C//DTD SVG 1.1//EN" "http://www.w3.org/Graphics/SVG/1.1/DTD/svg11.dtd" [
	<!ENTITY ns_flows "http://ns.adobe.com/Flows/1.0/">
	<!ENTITY ns_extend "http://ns.adobe.com/Extensibility/1.0/">
	<!ENTITY ns_ai "http://ns.adobe.com/AdobeIllustrator/10.0/">
	<!ENTITY ns_graphs "http://ns.adobe.com/Graphs/1.0/">
]>
<svg version="1.1" id="Capa_1" xmlns:x="&ns_extend;" xmlns:i="&ns_ai;" xmlns:graph="&ns_graphs;"
	 xmlns="http://www.w3.org/2000/svg" xmlns:xlink="http://www.w3.org/1999/xlink" xmlns:a="http://ns.adobe.com/AdobeSVGViewerExtensions/3.0/"
	 x="0px" y="0px" width="326px" height="326px" viewBox="0 0 326 326" enable-background="new 0 0 326 326" xml:space="preserve">
<path fill="#03a9f4" d="M202.4,10.8l-161.6,112c-39.6,31-27.8,58.2,0,76.8l168.6,117.7c40.9,16.3,55.1-13.9,53.5-42.6L264,40.3
	C260.3,3.7,220,0.4,202.4,10.8z"/>
<polyline fill="#F1F2F2" points="164,149.4 80.1,125.8 193.6,51 "/>
<path fill="#754C29" stroke="#00A79D" stroke-miterlimit="10" d="M292,210"/>
<path fill="#754C29" stroke="#00A79D" stroke-miterlimit="10" d="M306.7,144.4"/>
<path fill="#754C29" stroke="#00A79D" stroke-miterlimit="10" d="M292,210"/>
<path fill="#754C29" stroke="#00A79D" stroke-miterlimit="10" d="M266.4,162.5"/>
<path fill="#754C29" stroke="#00A79D" stroke-miterlimit="10" d="M306.7,144.4"/>
<path fill="#754C29" stroke="#00A79D" stroke-miterlimit="10" d="M266.4,162.5"/>
<polygon fill="#F1F2F2" points="179.9,141.6 239.2,73.4 235.1,268.9 "/>
<polygon fill="#F1F2F2" points="216.8,281.3 148.6,160.5 73.6,184 "/>
</svg>
